<?xml version="1.0" encoding="UTF-8"?>
<svg version="1.1" xmlns="http://www.w3.org/2000/svg" width="512" height="512">
<path d="M0 0 C0.67397652 -0.00320648 1.34795304 -0.00641296 2.04235309 -0.0097166 C4.2930689 -0.01799546 6.54351714 -0.01209984 8.79423714 -0.00622082 C10.42728701 -0.00924247 12.06033547 -0.01313202 13.69338143 -0.01781338 C18.17523811 -0.02810037 22.65701485 -0.02590977 27.13887811 -0.02163279 C31.97470034 -0.01916685 36.81050326 -0.0281781 41.64631844 -0.03567028 C51.11802923 -0.04842295 60.58971167 -0.05021026 70.0614296 -0.04787002 C77.75998793 -0.04608733 85.45853766 -0.04783543 93.15709496 -0.05209446 C94.25259107 -0.05268965 95.34808719 -0.05328484 96.47678015 -0.05389806 C98.70224984 -0.05510981 100.92771952 -0.05632394 103.1531892 -0.05754044 C124.02615091 -0.06841817 144.89909647 -0.06625238 165.7720591 -0.06015559 C184.8676735 -0.05498622 203.9632369 -0.066242 223.05884121 -0.08525381 C242.66595628 -0.10462525 262.2730472 -0.11288943 281.8801719 -0.10913056 C292.88817404 -0.10721746 303.89613277 -0.10971666 314.90412712 -0.1238451 C324.27532233 -0.13575101 333.6464474 -0.13717264 343.01764356 -0.12505493 C347.79848185 -0.11916073 352.5791918 -0.11808183 357.36002159 -0.13005733 C361.73839615 -0.14089724 366.11653489 -0.13783531 370.49489833 -0.12379565 C372.07693823 -0.12114351 373.6589965 -0.12353149 375.2410184 -0.13153151 C387.89773813 -0.19108081 397.57522824 1.08017697 406.97932625 10.25447559 C412.34904766 16.85188972 415.22074714 23.10695568 415.24675179 31.71718311 C415.25954674 33.63892605 415.25954674 33.63892605 415.27260017 35.59949207 C415.27190124 37.00694764 415.27097823 38.41440311 415.26985359 39.82185841 C415.27584236 41.31389164 415.28264871 42.80592178 415.29020882 44.29794788 C415.30784261 48.34154015 415.31256314 52.3850477 415.31384039 56.4286747 C415.31526427 58.95852565 415.3195384 61.48835524 415.32483482 64.01820087 C415.34332789 72.85429718 415.35150652 81.69033323 415.34993172 90.52644825 C415.34873118 98.74598303 415.36981803 106.96525486 415.40141904 115.18472314 C415.42762725 122.25501809 415.43829708 129.3252274 415.4370209 136.39557052 C415.43651251 140.61233792 415.44212696 144.82887164 415.463377 149.0455904 C415.48283572 153.01511903 415.48283225 156.98419292 415.46834373 160.95373821 C415.46626381 162.40407639 415.47090754 163.8544436 415.48306465 165.30473232 C415.57384075 176.89178878 414.02136245 185.89768668 405.9051075 194.50056934 C399.21029027 200.59787753 392.1491505 203.50107737 383.0532589 203.5117445 C382.03940915 203.51700361 382.03940915 203.51700361 381.0050776 203.52236897 C378.74179296 203.53166773 376.4787665 203.52676366 374.21547127 203.52190113 C372.57574719 203.52563817 370.93602489 203.5302399 369.29630542 203.53563178 C364.79132085 203.54787069 360.28641049 203.54760025 355.78141308 203.54524302 C350.92237451 203.54483508 346.06335981 203.55587187 341.20433235 203.56535816 C331.68469365 203.58197419 322.16507972 203.58746799 312.64542773 203.58858292 C304.90728467 203.58953314 297.16914977 203.59364212 289.43100929 203.59998417 C267.49277436 203.61759847 245.554559 203.62682278 223.61631694 203.62532322 C222.43351236 203.62524331 221.25070777 203.6251634 220.03206062 203.62508106 C218.84781206 203.6249993 217.66356349 203.62491754 216.44342861 203.6248333 C197.25141493 203.62402042 178.05947974 203.64315819 158.86748877 203.6713578 C139.16208869 203.70008333 119.45672689 203.71389826 99.75130534 203.71217024 C88.68790737 203.71150621 77.62459166 203.71700422 66.56121254 203.73852634 C57.14133314 203.75673379 47.7215733 203.76108905 38.30168393 203.7475075 C33.49638737 203.74097559 28.69132022 203.74086875 23.88604546 203.758214 C19.4840818 203.77393987 15.08252953 203.77108604 10.68057594 203.75364573 C9.09108403 203.75057477 7.50156145 203.7542119 5.91210571 203.76536588 C-5.95657698 203.84311487 -15.37543784 202.55458657 -24.2667675 194.18416309 C-29.90097896 187.98527566 -33.26281603 181.30801633 -33.28809929 172.87405872 C-33.29662926 171.58585728 -33.30515923 170.29765583 -33.31394768 168.97041798 C-33.3132487 167.54988563 -33.31232566 166.12935337 -33.3112011 164.7088213 C-33.31718808 163.20708349 -33.32399402 161.70534875 -33.33155632 160.20361805 C-33.34921021 156.12897598 -33.35391155 152.05441795 -33.35518789 147.97974133 C-33.35661086 145.43096722 -33.36088329 142.88221437 -33.36618233 140.33344555 C-33.38468341 131.43251537 -33.39285319 122.53164506 -33.39127922 113.6306963 C-33.39007909 105.34926707 -33.41115586 97.06809901 -33.44276655 88.78673583 C-33.46897476 81.66550614 -33.47964455 74.54436147 -33.4783684 67.42308396 C-33.47785993 63.17500323 -33.4834788 58.92715444 -33.5047245 54.67912197 C-33.52418271 50.679239 -33.52418008 46.67980731 -33.50969124 42.6799078 C-33.50761111 41.21828262 -33.51225625 39.75662864 -33.52441216 38.29505253 C-33.61473289 26.67521278 -32.09533358 17.63151964 -23.94254875 9.00838184 C-16.94756033 2.62474403 -9.50403622 0.00689122 0 0 Z M-0.02067375 33.25447559 C-0.02067375 78.79447559 -0.02067375 124.33447559 -0.02067375 171.25447559 C126.36932625 170.92447559 252.75932625 170.59447559 382.97932625 170.25447559 C382.97932625 125.04447559 382.97932625 79.83447559 382.97932625 33.25447559 C256.58932625 33.25447559 130.19932625 33.25447559 -0.02067375 33.25447559 Z " fill="#000000" transform="translate(65.02067375183105,276.7455244064331)"/>
<path d="M0 0 C1.65087106 -0.00648621 3.30173475 -0.01514516 4.95258433 -0.0257743 C9.46536072 -0.04849479 13.97761879 -0.04023788 18.49041212 -0.02663505 C23.36647425 -0.01735634 28.24243538 -0.03688745 33.11846924 -0.0526123 C42.66154046 -0.07866832 52.20442309 -0.07762046 61.74751633 -0.06657412 C69.50555985 -0.05800747 77.2635489 -0.05885299 85.02159309 -0.06637001 C86.12678253 -0.0674249 87.23197196 -0.06847979 88.37065198 -0.06956664 C90.61600634 -0.07173762 92.8613607 -0.0739244 95.10671503 -0.07612679 C116.15054605 -0.09554643 137.19427137 -0.08356848 158.23809374 -0.06134085 C176.2831178 -0.04309154 194.32793723 -0.05399352 212.37294006 -0.08564758 C233.34116941 -0.12242754 254.30927097 -0.13942579 275.27753264 -0.12623531 C277.51482076 -0.12489424 279.75210889 -0.12358526 281.98939705 -0.12230873 C283.64046309 -0.12136273 283.64046309 -0.12136273 285.32488401 -0.12039762 C293.07045867 -0.11737321 300.81593676 -0.12861819 308.56149101 -0.14555931 C318.00541127 -0.16590439 327.44904282 -0.16498376 336.89294808 -0.13692691 C341.70874402 -0.12317387 346.5240363 -0.11892789 351.33981323 -0.14087677 C355.7535976 -0.16072735 360.16643667 -0.15258144 364.58015627 -0.12268243 C366.17154632 -0.11670441 367.76301403 -0.12070783 369.35434138 -0.13604566 C381.16538103 -0.24153299 390.3921706 1.93556246 399.50990295 9.82914734 C407.40779231 18.68124369 408.30380164 28.45601808 408.20350647 39.86845398 C408.20865568 41.37108196 408.21594447 42.87370389 408.22518921 44.37631226 C408.24358276 48.42602098 408.23084244 52.47506483 408.21109891 56.52474523 C408.19461369 60.78014493 408.20353881 65.03550578 408.20861816 69.29092407 C408.21312767 76.43341084 408.1973393 83.57563475 408.16932678 90.71806335 C408.13726772 98.95534843 408.1372991 107.19215997 408.15454155 115.4294787 C408.170448 123.38143558 408.16364747 131.33322018 408.14660454 139.2851696 C408.13976308 142.65695771 408.14073638 146.02860652 408.14814949 149.40039253 C408.1558549 153.37579508 408.14354896 157.35066368 408.11630058 161.32597542 C408.10946044 162.77790747 408.10927143 164.22988982 408.11651611 165.68181992 C408.16758245 177.25662186 406.61432152 186.29923347 398.49427795 194.88774109 C391.49928953 201.2713789 384.05576542 203.88923171 374.5517292 203.89612293 C373.87775268 203.89932941 373.20377616 203.90253589 372.50937611 203.90583953 C370.2586603 203.91411839 368.00821207 203.90822278 365.75749207 203.90234375 C364.12444219 203.9053654 362.49139373 203.90925495 360.85834777 203.91393632 C356.3764911 203.9242233 351.89471435 203.9220327 347.4128511 203.91775572 C342.57702886 203.91528978 337.74122594 203.92430103 332.90541077 203.93179321 C323.43369998 203.94454589 313.96201753 203.94633319 304.4902996 203.94399295 C296.79174127 203.94221027 289.09319155 203.94395836 281.39463425 203.94821739 C280.29913813 203.94881258 279.20364202 203.94940777 278.07494905 203.95002099 C275.84947937 203.95123274 273.62400968 203.95244687 271.39854001 203.95366337 C250.52557829 203.9645411 229.65263273 203.96237531 208.7796701 203.95627853 C189.6840557 203.95110916 170.5884923 203.96236493 151.49288799 203.98137674 C131.88577293 204.00074819 112.278682 204.00901236 92.67155731 204.00525349 C81.66355516 204.0033404 70.65559643 204.00583959 59.64760208 204.01996803 C50.27640687 204.03187395 40.90528181 204.03329557 31.53408565 204.02117787 C26.75324735 204.01528366 21.97253741 204.01420477 17.19170761 204.02618027 C12.81333305 204.03702017 8.43519431 204.03395825 4.05683087 204.01991858 C2.47479097 204.01726644 0.8927327 204.01965443 -0.6892892 204.02765445 C-13.34600892 204.08720374 -23.02349903 202.81594596 -32.42759705 193.64164734 C-37.80534445 187.03437221 -40.66246789 180.77438907 -40.70848083 172.1544342 C-40.71990112 170.86774841 -40.73132141 169.58106262 -40.74308777 168.25538635 C-40.74557807 166.84165994 -40.74782835 165.42793308 -40.74986267 164.01420593 C-40.75912822 162.51556413 -40.76917877 161.016927 -40.779953 159.51829529 C-40.80612061 155.45599264 -40.81907559 151.39375598 -40.82797432 147.33138227 C-40.83385005 144.78878497 -40.84206241 142.24620542 -40.85098267 139.7036171 C-40.87831415 131.73515326 -40.89765528 123.76673034 -40.90538645 115.7982229 C-40.91433759 106.62464115 -40.94939308 97.45165693 -41.00738764 88.27825677 C-41.05074484 81.1714131 -41.07080161 74.06473677 -41.07346869 66.95776236 C-41.07555641 62.72067024 -41.08718942 58.48414048 -41.12310791 54.24718857 C-41.15628455 50.25616323 -41.16027917 46.26611639 -41.1428299 42.27500153 C-41.14130034 40.81903317 -41.14982579 39.36300985 -41.1697464 37.90717697 C-41.31640801 26.51060181 -38.97126784 17.35784702 -31.24009705 8.70414734 C-21.87676739 0.61938458 -11.85907073 -0.08534757 0 0 Z M-8.42759705 27.64164734 C-8.42759705 73.18164734 -8.42759705 118.72164734 -8.42759705 165.64164734 C118.29240295 165.64164734 245.01240295 165.64164734 375.57240295 165.64164734 C375.57240295 120.10164734 375.57240295 74.56164734 375.57240295 27.64164734 C248.85240295 27.64164734 122.13240295 27.64164734 -8.42759705 27.64164734 Z " fill="#000000" transform="translate(72.42759704589844,31.358352661132813)"/>
<path d="M0 0 C6.87138192 4.53218808 11.73932636 11.00124998 16.82421875 17.38671875 C18.75351282 19.71542306 20.76181521 21.84039525 22.9375 23.9375 C24.79303931 21.93875815 26.64723668 19.93881327 28.5 17.9375 C29.04849609 17.34533691 29.59699219 16.75317383 30.16210938 16.14306641 C33.67361477 12.3403175 37.11137231 8.49053771 40.4375 4.5234375 C44.12396453 0.62576927 47.23447285 -0.91817567 52.625 -1.375 C57.40843051 -1.29571662 61.05646655 0.17516799 64.9375 2.9375 C69.02572941 7.44503499 70.15834212 11.97476289 69.9375 17.9375 C67.25228849 28.29474441 57.46790159 36.52722002 50.421875 44.1640625 C47.90552304 46.97319755 45.54124092 49.86637462 43.1875 52.8125 C38.35949747 58.77100312 33.7157296 64.28657292 25.68359375 65.19140625 C19.5268781 65.48279279 14.88041474 64.72675533 9.9375 60.9375 C3.82809527 55.01684111 -1.43751934 48.32291113 -6.76171875 41.703125 C-9.20475187 38.76650794 -11.76922374 35.98022068 -14.375 33.1875 C-20.44259085 26.5065446 -23.84862053 21.95568339 -23.4375 12.58984375 C-22.83397226 8.3211423 -21.82268922 6.3187318 -19.0625 2.9375 C-13.10530967 -1.49085387 -7.05853639 -2.44887997 0 0 Z " fill="#000000" transform="translate(130.0625,96.0625)"/>
<path d="M0 0 C7.4208088 3.19884777 12.16933824 10.84379754 17 17 C18.97694089 19.35446759 20.98644 21.67666154 23 24 C26.88847991 22.47269638 28.76365184 20.12557367 31.3125 16.875 C32.09882813 15.89273437 32.88515625 14.91046875 33.6953125 13.8984375 C34.45585937 12.94195312 35.21640625 11.98546875 36 11 C44.413784 0.54238183 44.413784 0.54238183 51.609375 -0.30859375 C56.16825824 -0.5118953 59.27196415 -0.3441624 63.4375 1.625 C67.951427 5.80863966 70.63976329 9.62621665 71.08203125 15.9375 C70.77562001 23.64155397 66.4889382 28.05171134 61.44140625 33.3828125 C59.09419768 35.89902009 56.95109547 38.49326944 54.8125 41.1875 C50.95281584 45.94573497 46.90544989 50.49803702 42.75 55 C42.15936768 55.64735107 41.56873535 56.29470215 40.96020508 56.96166992 C35.98807886 62.29392185 31.82188462 65.50552496 24.390625 66.046875 C17.69985295 65.91568339 13.2715448 63.62243403 8.5 59 C4.56333361 54.78360515 0.93039243 50.33486554 -2.671875 45.83203125 C-5.08511279 42.89646514 -7.6088823 40.10342904 -10.1875 37.3125 C-22.39634968 24.03870393 -22.39634968 24.03870393 -22.27734375 12.984375 C-21.77970509 7.62950268 -19.24904972 5.18659723 -15.5 1.625 C-10.28850228 -0.79462394 -5.64218605 -0.94657547 0 0 Z " fill="#000000" transform="translate(129,345)"/>
</svg>
